<svg width="798" height="516" xmlns="http://www.w3.org/2000/svg">
  <g>
    <path d="m798.00002,260.96882c-116.779,5.602 -232.112,-4.565 -346,-30.5a2201.346,2201.346 0 0 1 -208,-61a4667.206,4667.206 0 0 1 -244,-92.5c-0.167,-19.67 0,-39.336 0.5,-59c2.5,-9.167 8.333,-15 17.5,-17.5c253.667,-0.667 507.333,-0.667 761,0c9.731,2.064 15.897,7.897 18.5,17.5c0.5,80.999 0.667,161.999 0.5,243z" fill="#ff251a"/>
    <path d="m0.00002,76.96882a4667.206,4667.206 0 0 0 244,92.5a2201.346,2201.346 0 0 0 208,61c113.888,25.935 229.221,36.102 346,30.5l0,40a1714.551,1714.551 0 0 1 -273,-32.5a1690.33,1690.33 0 0 1 -161,-44a5108.883,5108.883 0 0 1 -364,-140.5l0,-7z" fill="#feb701"/>
    <path d="m0.00002,83.96882a5108.883,5108.883 0 0 0 364,140.5a1690.33,1690.33 0 0 0 161,44a1714.551,1714.551 0 0 0 273,32.5c0.167,65.001 0,130.001 -0.5,195c-1.833,11.167 -8.333,17.667 -19.5,19.5c-48.332,0.5 -96.666,0.667 -145,0.5c-11.329,-37.319 -27.496,-72.319 -48.5,-105c-24.54,-31.88 -54.04,-58.047 -88.5,-78.5c-57.103,-33.885 -116.436,-63.551 -178,-89a7370.892,7370.892 0 0 0 -318,-124.5l0,-35z" fill="#f4e100"/>
    <path d="m0.00002,118.96882a7370.892,7370.892 0 0 1 318,124.5c61.564,25.449 120.897,55.115 178,89c34.46,20.453 63.96,46.62 88.5,78.5c21.004,32.681 37.171,67.681 48.5,105l-52,0c-4.368,-43.39 -21.201,-81.057 -50.5,-113c-33.148,-32.828 -69.981,-60.661 -110.5,-83.5a1889.65,1889.65 0 0 0 -137,-70a5216.182,5216.182 0 0 0 -283,-116.5l0,-14z" fill="#bfd104"/>
    <path d="m0.00002,132.96882a5216.182,5216.182 0 0 1 283,116.5a1889.65,1889.65 0 0 1 137,70c40.519,22.839 77.352,50.672 110.5,83.5c29.299,31.943 46.132,69.61 50.5,113c-187.667,0.167 -375.334,0 -563,-0.5c-9.603,-2.603 -15.436,-8.769 -17.5,-18.5c-0.5,-121.333 -0.667,-242.666 -0.5,-364z" fill="#007530"/>
  </g>
</svg>
